# Blender v2.81 (sub 16) OBJ File: 'simple_table.blend'
# www.blender.org
o Legs_Plane.001
v 0.437500 -0.437500 -0.312500
v 0.375000 -0.437500 -0.312500
v 0.437500 -0.437500 0.312500
v 0.375000 -0.437500 0.312500
v 0.437500 -0.375000 0.312500
v 0.437500 -0.375000 -0.312500
v 0.375000 -0.375000 -0.312500
v 0.375000 -0.375000 0.312500
v 0.375000 -0.437500 -0.375000
v 0.437500 -0.437500 -0.375000
v 0.437500 -0.437500 0.062500
v 0.375000 -0.437500 0.062500
v 0.437500 -0.375000 0.062500
v 0.375000 -0.375000 0.062500
v 0.437500 -0.437500 0.062500
v 0.437500 -0.437500 -0.062500
v 0.437500 -0.375000 -0.062167
v 0.437500 -0.437500 -0.061835
v 0.375000 -0.437500 -0.061835
v 0.375000 -0.375000 -0.061835
v 0.375000 0.125000 -0.061835
v 0.375000 0.125000 0.062500
v 0.437500 0.125000 0.062500
v 0.437500 0.125000 -0.062167
v 0.375000 0.250000 -0.061835
v 0.375000 0.312500 0.062500
v 0.437500 0.312500 0.062500
v 0.437500 0.250000 -0.062167
v 0.437500 -0.375000 -0.375000
v 0.375000 -0.375000 -0.375000
v 0.375000 -0.437500 0.375000
v 0.437500 -0.437500 0.375000
v 0.375000 -0.375000 0.375000
v 0.437500 -0.375000 0.375000
v 0.375000 -0.312500 0.312500
v 0.437500 -0.312500 0.312500
v 0.375000 -0.312500 0.375000
v 0.437500 -0.312500 0.375000
v 0.375000 -0.500000 0.312500
v 0.437500 -0.500000 0.312500
v 0.375000 -0.500000 0.375000
v 0.437500 -0.500000 0.375000
v 0.437500 -0.500000 -0.312500
v 0.375000 -0.500000 -0.312500
v 0.437500 -0.500000 -0.375000
v 0.375000 -0.500000 -0.375000
v 0.437500 -0.312500 -0.312500
v 0.375000 -0.312500 -0.312500
v 0.437500 -0.312500 -0.375000
v 0.375000 -0.312500 -0.375000
v -0.437500 -0.437500 -0.312500
v -0.375000 -0.437500 -0.312500
v -0.437500 -0.437500 0.312500
v -0.375000 -0.437500 0.312500
v -0.437500 -0.375000 0.312500
v -0.437500 -0.375000 -0.312500
v -0.375000 -0.375000 -0.312500
v -0.375000 -0.375000 0.312500
v -0.375000 -0.437500 -0.375000
v -0.437500 -0.437500 -0.375000
v -0.437500 -0.437500 0.062500
v -0.375000 -0.437500 0.062500
v -0.437500 -0.375000 0.062500
v -0.375000 -0.375000 0.062500
v -0.437500 -0.437500 0.062500
v -0.437500 -0.437500 -0.062500
v -0.437500 -0.375000 -0.062167
v -0.437500 -0.437500 -0.061835
v -0.375000 -0.437500 -0.061835
v -0.375000 -0.375000 -0.061835
v -0.375000 0.125000 -0.061835
v -0.375000 0.125000 0.062500
v -0.437500 0.125000 0.062500
v -0.437500 0.125000 -0.062167
v -0.375000 0.250000 -0.061835
v -0.375000 0.312500 0.062500
v -0.437500 0.312500 0.062500
v -0.437500 0.250000 -0.062167
v -0.437500 -0.375000 -0.375000
v -0.375000 -0.375000 -0.375000
v -0.375000 -0.437500 0.375000
v -0.437500 -0.437500 0.375000
v -0.375000 -0.375000 0.375000
v -0.437500 -0.375000 0.375000
v -0.375000 -0.312500 0.312500
v -0.437500 -0.312500 0.312500
v -0.375000 -0.312500 0.375000
v -0.437500 -0.312500 0.375000
v -0.375000 -0.500000 0.312500
v -0.437500 -0.500000 0.312500
v -0.375000 -0.500000 0.375000
v -0.437500 -0.500000 0.375000
v -0.437500 -0.500000 -0.312500
v -0.375000 -0.500000 -0.312500
v -0.437500 -0.500000 -0.375000
v -0.375000 -0.500000 -0.375000
v -0.437500 -0.312500 -0.312500
v -0.375000 -0.312500 -0.312500
v -0.437500 -0.312500 -0.375000
v -0.375000 -0.312500 -0.375000
vt 0.692308 0.333333
vt 0.615385 0.358974
vt 0.615385 0.333333
vt 0.615385 0.410256
vt 0.692308 0.384615
vt 0.615385 0.384615
vt 0.692308 0.435897
vt 0.615385 0.435897
vt 0.711538 0.410256
vt 0.692308 0.384615
vt 0.711538 0.384615
vt 0.480769 0.410256
vt 0.500000 0.384615
vt 0.500000 0.410256
vt 0.576923 0.384615
vt 0.500000 0.358974
vt 0.576923 0.358974
vt 0.634615 0.717949
vt 0.403846 0.666667
vt 0.634615 0.666667
vt 0.634615 0.666667
vt 0.653846 0.897436
vt 0.653846 0.666667
vt 0.615385 0.358974
vt 0.576923 0.333333
vt 0.576923 0.358974
vt 0.615385 0.384615
vt 0.692308 0.358974
vt 0.692308 0.384615
vt 0.653846 0.692308
vt 0.692308 0.666667
vt 0.653846 0.666667
vt 0.576923 0.333333
vt 0.500000 0.358974
vt 0.500000 0.333333
vt 0.576923 0.384615
vt 0.500000 0.384615
vt 0.576923 0.435897
vt 0.500000 0.435897
vt 0.653846 0.897436
vt 0.692308 0.948718
vt 0.653846 0.974359
vt 0.750000 0.666667
vt 0.711538 0.897436
vt 0.711538 0.666667
vt 0.692308 0.692308
vt 0.711538 0.897436
vt 0.711538 0.692308
vt 0.692308 0.692308
vt 0.653846 0.692308
vt 0.634615 0.897436
vt 0.653846 0.974359
vt 0.692308 0.897436
vt 0.634615 0.897436
vt 0.403846 0.974359
vt 0.634615 0.974359
vt 0.961538 0.897436
vt 0.711538 0.948718
vt 0.961538 0.948718
vt 0.423077 0.384615
vt 0.442308 0.410256
vt 0.423077 0.410256
vt 0.423077 0.358974
vt 0.442308 0.384615
vt 0.442308 0.358974
vt 0.403846 0.384615
vt 0.423077 0.384615
vt 0.442308 0.410256
vt 0.423077 0.435897
vt 0.423077 0.410256
vt 0.769231 0.410256
vt 0.750000 0.384615
vt 0.769231 0.384615
vt 0.769231 0.410256
vt 0.750000 0.435897
vt 0.750000 0.410256
vt 0.769231 0.384615
vt 0.788462 0.358974
vt 0.769231 0.358974
vt 0.750000 0.358974
vt 0.730769 0.384615
vt 0.711538 0.410256
vt 0.711538 0.384615
vt 0.730769 0.384615
vt 0.750000 0.384615
vt 0.750000 0.410256
vt 0.730769 0.384615
vt 0.730769 0.410256
vt 0.788462 0.410256
vt 0.807692 0.384615
vt 0.807692 0.410256
vt 0.826923 0.410256
vt 0.807692 0.384615
vt 0.826923 0.384615
vt 0.788462 0.435897
vt 0.769231 0.435897
vt 0.788462 0.410256
vt 0.403846 0.384615
vt 0.384615 0.410256
vt 0.384615 0.384615
vt 0.403846 0.384615
vt 0.403846 0.410256
vt 0.384615 0.384615
vt 0.365385 0.410256
vt 0.365385 0.384615
vt 0.461538 0.410256
vt 0.480769 0.384615
vt 0.480769 0.410256
vt 0.461538 0.358974
vt 0.461538 0.435897
vt 0.442308 0.435897
vt 0.442308 0.384615
vt 0.461538 0.410256
vt 0.403846 0.641026
vt 0.634615 0.589744
vt 0.634615 0.641026
vt 0.615385 0.487179
vt 0.692308 0.461538
vt 0.615385 0.461538
vt 0.692308 0.512821
vt 0.615385 0.538462
vt 0.615385 0.512821
vt 0.692308 0.564103
vt 0.615385 0.564103
vt 0.692308 0.512821
vt 0.711538 0.538462
vt 0.711538 0.512821
vt 0.500000 0.512821
vt 0.480769 0.538462
vt 0.500000 0.538462
vt 0.576923 0.512821
vt 0.500000 0.487179
vt 0.500000 0.512821
vt 0.403846 0.897436
vt 0.384615 0.666667
vt 0.576923 0.487179
vt 0.576923 0.461538
vt 0.692308 0.487179
vt 0.615385 0.512821
vt 0.692308 0.512821
vt 0.384615 0.692308
vt 0.346154 0.666667
vt 0.346154 0.692308
vt 0.500000 0.487179
vt 0.500000 0.461538
vt 0.576923 0.512821
vt 0.500000 0.512821
vt 0.576923 0.564103
vt 0.500000 0.564103
vt 0.384615 0.897436
vt 0.346154 0.948718
vt 0.346154 0.897436
vt 0.961538 0.897436
vt 0.923077 0.666667
vt 0.961538 0.666667
vt 0.980769 0.897436
vt 0.961538 0.692308
vt 0.980769 0.692308
vt 0.346154 0.692308
vt 0.384615 0.692308
vt 0.403846 0.974359
vt 0.980769 0.948718
vt 0.634615 0.846154
vt 0.634615 0.897436
vt 0.442308 0.538462
vt 0.423077 0.512821
vt 0.423077 0.538462
vt 0.442308 0.487179
vt 0.423077 0.512821
vt 0.442308 0.512821
vt 0.403846 0.487179
vt 0.423077 0.487179
vt 0.423077 0.564103
vt 0.442308 0.538462
vt 0.423077 0.538462
vt 0.750000 0.512821
vt 0.769231 0.538462
vt 0.769231 0.512821
vt 0.750000 0.564103
vt 0.769231 0.538462
vt 0.750000 0.538462
vt 0.788462 0.512821
vt 0.769231 0.487179
vt 0.769231 0.512821
vt 0.750000 0.512821
vt 0.711538 0.538462
vt 0.730769 0.512821
vt 0.711538 0.512821
vt 0.730769 0.487179
vt 0.750000 0.487179
vt 0.730769 0.512821
vt 0.750000 0.538462
vt 0.730769 0.538462
vt 0.807692 0.512821
vt 0.788462 0.538462
vt 0.807692 0.538462
vt 0.807692 0.512821
vt 0.826923 0.538462
vt 0.826923 0.512821
vt 0.788462 0.564103
vt 0.769231 0.564103
vt 0.788462 0.538462
vt 0.384615 0.538462
vt 0.403846 0.512821
vt 0.384615 0.512821
vt 0.403846 0.512821
vt 0.403846 0.538462
vt 0.365385 0.538462
vt 0.384615 0.512821
vt 0.365385 0.512821
vt 0.480769 0.512821
vt 0.461538 0.538462
vt 0.480769 0.538462
vt 0.461538 0.512821
vt 0.461538 0.564103
vt 0.442308 0.564103
vt 0.461538 0.538462
vt 0.442308 0.512821
vt 0.634615 0.717949
vt 0.403846 0.743590
vt 0.634615 0.743590
vt 0.692308 0.358974
vt 0.692308 0.410256
vt 0.692308 0.410256
vt 0.480769 0.384615
vt 0.500000 0.384615
vt 0.403846 0.717949
vt 0.615385 0.333333
vt 0.615385 0.358974
vt 0.692308 0.692308
vt 0.576923 0.358974
vt 0.576923 0.410256
vt 0.750000 0.897436
vt 0.692308 0.897436
vt 0.634615 0.974359
vt 0.711538 0.948718
vt 0.403846 0.897436
vt 0.711538 0.897436
vt 0.403846 0.358974
vt 0.788462 0.384615
vt 0.730769 0.410256
vt 0.730769 0.358974
vt 0.730769 0.410256
vt 0.730769 0.435897
vt 0.807692 0.410256
vt 0.788462 0.410256
vt 0.788462 0.384615
vt 0.403846 0.410256
vt 0.403846 0.410256
vt 0.403846 0.435897
vt 0.384615 0.410256
vt 0.461538 0.384615
vt 0.461538 0.410256
vt 0.461538 0.384615
vt 0.403846 0.589744
vt 0.692308 0.487179
vt 0.692308 0.538462
vt 0.692308 0.538462
vt 0.480769 0.512821
vt 0.576923 0.487179
vt 0.615385 0.487179
vt 0.576923 0.538462
vt 0.384615 0.974359
vt 0.923077 0.897436
vt 0.961538 0.948718
vt 0.403846 0.846154
vt 0.403846 0.512821
vt 0.788462 0.487179
vt 0.730769 0.538462
vt 0.730769 0.512821
vt 0.730769 0.538462
vt 0.730769 0.564103
vt 0.788462 0.512821
vt 0.807692 0.538462
vt 0.788462 0.538462
vt 0.788462 0.512821
vt 0.403846 0.538462
vt 0.403846 0.538462
vt 0.403846 0.564103
vt 0.384615 0.538462
vt 0.461538 0.512821
vt 0.461538 0.487179
vt 0.461538 0.538462
vt 0.461538 0.512821
vt 0.403846 0.717949
vn 0.0000 -1.0000 0.0000
vn 0.0000 1.0000 0.0000
vn -1.0000 0.0000 0.0000
vn 0.0000 0.0000 -1.0000
vn 0.0000 0.0000 1.0000
vn 1.0000 0.0000 0.0000
vn -0.0053 0.0000 -1.0000
vn 0.0053 0.0000 -1.0000
s off
f 3/1/1 12/2/1 11/3/1
f 14/4/2 5/5/2 13/6/2
f 4/7/3 14/4/3 12/8/3
f 8/9/4 36/10/4 5/11/4
f 6/12/5 48/13/5 7/14/5
f 16/15/6 6/16/6 17/17/6
f 20/18/2 64/19/2 14/20/2
f 13/21/5 22/22/5 14/23/5
f 11/24/1 19/25/1 18/26/1
f 15/27/6 5/28/6 3/29/6
f 15/30/6 17/31/6 13/32/6
f 18/33/1 2/34/1 1/35/1
f 7/14/2 17/36/2 6/37/2
f 19/38/3 7/14/3 2/39/3
f 23/40/6 28/41/6 27/42/6
f 14/43/3 21/44/3 20/45/3
f 20/46/7 24/47/7 17/48/7
f 17/49/6 23/40/6 13/50/6
f 23/51/5 26/52/5 22/22/5
f 21/44/7 28/41/7 24/53/7
f 26/54/5 72/55/5 22/56/5
f 21/57/4 75/58/4 25/59/4
f 9/60/4 29/61/4 10/62/4
f 1/63/6 29/64/6 6/65/6
f 1/63/6 45/66/6 10/67/6
f 7/68/3 9/69/3 2/70/3
f 32/71/5 33/72/5 31/73/5
f 4/74/3 33/75/3 8/76/3
f 32/77/6 40/78/6 3/79/6
f 5/80/6 32/77/6 3/79/6
f 35/81/2 38/82/2 36/83/2
f 5/80/6 38/84/6 34/85/6
f 34/86/5 37/87/5 33/72/5
f 33/75/3 35/88/3 8/76/3
f 40/89/1 41/90/1 39/91/1
f 3/92/4 39/93/4 4/94/4
f 4/74/3 41/95/3 31/96/3
f 31/73/5 42/97/5 32/71/5
f 44/98/1 45/99/1 43/100/1
f 10/62/4 46/101/4 9/60/4
f 9/69/3 44/102/3 2/70/3
f 2/103/5 43/104/5 1/105/5
f 47/106/2 50/107/2 48/108/2
f 29/64/6 47/109/6 6/65/6
f 7/68/3 50/110/3 30/111/3
f 30/112/4 49/113/4 29/61/4
f 62/114/1 19/115/1 12/116/1
f 62/117/1 53/118/1 61/119/1
f 55/120/2 64/121/2 63/122/2
f 64/121/6 54/123/6 62/124/6
f 86/125/4 58/126/4 55/127/4
f 98/128/5 56/129/5 57/130/5
f 66/131/3 56/132/3 51/133/3
f 64/19/5 12/116/5 14/20/5
f 72/134/5 63/135/5 64/19/5
f 69/136/1 61/119/1 68/137/1
f 55/138/3 65/139/3 53/140/3
f 65/141/3 67/142/3 66/143/3
f 52/144/1 68/137/1 51/145/1
f 67/146/2 57/130/2 56/147/2
f 57/130/6 69/148/6 52/149/6
f 73/150/3 78/151/3 74/152/3
f 71/153/6 64/154/6 70/155/6
f 74/156/8 70/157/8 67/158/8
f 73/150/3 67/159/3 63/160/3
f 76/161/5 73/150/5 72/134/5
f 78/162/8 71/153/8 74/156/8
f 72/134/1 21/163/1 22/164/1
f 79/165/4 59/166/4 60/167/4
f 79/168/3 51/169/3 56/170/3
f 95/171/3 51/169/3 60/172/3
f 59/173/6 57/174/6 52/175/6
f 83/176/5 82/177/5 81/178/5
f 83/179/6 54/180/6 58/181/6
f 90/182/3 82/183/3 53/184/3
f 82/183/3 55/185/3 53/184/3
f 88/186/2 85/187/2 86/188/2
f 88/189/3 55/185/3 84/190/3
f 87/191/5 84/192/5 83/176/5
f 85/193/6 83/179/6 58/181/6
f 91/194/1 90/195/1 89/196/1
f 89/197/4 53/198/4 54/199/4
f 91/200/6 54/180/6 81/201/6
f 92/202/5 81/178/5 82/177/5
f 95/203/1 94/204/1 93/205/1
f 96/206/4 60/167/4 59/166/4
f 94/207/6 59/173/6 52/175/6
f 93/208/5 52/209/5 51/210/5
f 100/211/2 97/212/2 98/213/2
f 97/214/3 79/168/3 56/170/3
f 100/215/6 57/174/6 80/216/6
f 99/217/4 80/218/4 79/165/4
f 19/219/4 70/220/4 20/221/4
f 3/1/1 4/222/1 12/2/1
f 14/4/2 8/223/2 5/5/2
f 4/7/3 8/223/3 14/4/3
f 8/9/4 35/224/4 36/10/4
f 6/12/5 47/225/5 48/13/5
f 16/15/6 1/226/6 6/16/6
f 20/18/2 70/227/2 64/19/2
f 13/21/5 23/51/5 22/22/5
f 11/24/1 12/228/1 19/25/1
f 15/27/6 13/229/6 5/28/6
f 15/30/6 16/230/6 17/31/6
f 18/33/1 19/231/1 2/34/1
f 7/14/2 20/232/2 17/36/2
f 19/38/3 20/232/3 7/14/3
f 23/40/6 24/53/6 28/41/6
f 14/43/3 22/233/3 21/44/3
f 20/46/7 21/234/7 24/47/7
f 17/49/6 24/53/6 23/40/6
f 23/51/5 27/235/5 26/52/5
f 21/44/7 25/236/7 28/41/7
f 26/54/5 76/237/5 72/55/5
f 21/57/4 71/238/4 75/58/4
f 9/60/4 30/112/4 29/61/4
f 1/63/6 10/67/6 29/64/6
f 1/63/6 43/239/6 45/66/6
f 7/68/3 30/111/3 9/69/3
f 32/71/5 34/86/5 33/72/5
f 4/74/3 31/96/3 33/75/3
f 32/77/6 42/240/6 40/78/6
f 5/80/6 34/85/6 32/77/6
f 35/81/2 37/241/2 38/82/2
f 5/80/6 36/242/6 38/84/6
f 34/86/5 38/243/5 37/87/5
f 33/75/3 37/244/3 35/88/3
f 40/89/1 42/240/1 41/90/1
f 3/92/4 40/245/4 39/93/4
f 4/74/3 39/246/3 41/95/3
f 31/73/5 41/247/5 42/97/5
f 44/98/1 46/248/1 45/99/1
f 10/62/4 45/249/4 46/101/4
f 9/69/3 46/250/3 44/102/3
f 2/103/5 44/251/5 43/104/5
f 47/106/2 49/252/2 50/107/2
f 29/64/6 49/252/6 47/109/6
f 7/68/3 48/253/3 50/110/3
f 30/112/4 50/254/4 49/113/4
f 62/114/1 69/255/1 19/115/1
f 62/117/1 54/256/1 53/118/1
f 55/120/2 58/257/2 64/121/2
f 64/121/6 58/257/6 54/123/6
f 86/125/4 85/258/4 58/126/4
f 98/128/5 97/259/5 56/129/5
f 66/131/3 67/260/3 56/132/3
f 64/19/5 62/114/5 12/116/5
f 72/134/5 73/150/5 63/135/5
f 69/136/1 62/117/1 61/119/1
f 55/138/3 63/261/3 65/139/3
f 65/141/3 63/135/3 67/142/3
f 52/144/1 69/136/1 68/137/1
f 67/146/2 70/262/2 57/130/2
f 57/130/6 70/262/6 69/148/6
f 73/150/3 77/263/3 78/151/3
f 71/153/6 72/264/6 64/154/6
f 74/156/8 71/153/8 70/157/8
f 73/150/3 74/152/3 67/159/3
f 76/161/5 77/263/5 73/150/5
f 78/162/8 75/265/8 71/153/8
f 72/134/1 71/266/1 21/163/1
f 79/165/4 80/218/4 59/166/4
f 79/168/3 60/172/3 51/169/3
f 95/171/3 93/267/3 51/169/3
f 59/173/6 80/216/6 57/174/6
f 83/176/5 84/192/5 82/177/5
f 83/179/6 81/201/6 54/180/6
f 90/182/3 92/268/3 82/183/3
f 82/183/3 84/190/3 55/185/3
f 88/186/2 87/269/2 85/187/2
f 88/189/3 86/270/3 55/185/3
f 87/191/5 88/271/5 84/192/5
f 85/193/6 87/272/6 83/179/6
f 91/194/1 92/273/1 90/195/1
f 89/197/4 90/274/4 53/198/4
f 91/200/6 89/275/6 54/180/6
f 92/202/5 91/276/5 81/178/5
f 95/203/1 96/277/1 94/204/1
f 96/206/4 95/278/4 60/167/4
f 94/207/6 96/279/6 59/173/6
f 93/208/5 94/280/5 52/209/5
f 100/211/2 99/281/2 97/212/2
f 97/214/3 99/282/3 79/168/3
f 100/215/6 98/283/6 57/174/6
f 99/217/4 100/284/4 80/218/4
f 19/219/4 69/285/4 70/220/4
o Surface_Plane.002
v 0.437500 -0.059359 -0.309359
v 0.437500 0.603553 0.353553
v 0.437500 0.647748 0.309359
v 0.437500 -0.015165 -0.353553
v 0.437500 -0.103553 -0.353553
v 0.437500 -0.059359 -0.397748
v 0.500000 0.603553 0.353553
v 0.500000 -0.059359 -0.309359
v 0.500000 0.647748 0.309359
v 0.500000 -0.015165 -0.353553
v 0.500000 -0.059359 -0.397748
v 0.500000 -0.103553 -0.353553
v 0.437500 0.029029 -0.397748
v 0.437500 -0.015165 -0.441942
v -0.437500 -0.059359 -0.309359
v -0.437500 0.603553 0.353553
v -0.437500 0.647748 0.309359
v -0.437500 -0.015165 -0.353553
v -0.437500 -0.103553 -0.353553
v -0.437500 -0.059359 -0.397748
v -0.500000 0.603553 0.353553
v -0.500000 -0.059359 -0.309359
v -0.500000 0.647748 0.309359
v -0.500000 -0.015165 -0.353553
v -0.500000 -0.059359 -0.397748
v -0.500000 -0.103553 -0.353553
v -0.437500 0.029029 -0.397748
v -0.437500 -0.015165 -0.441942
vt 0.038462 0.461538
vt 0.307692 0.435897
vt 0.307692 0.461538
vt 0.038462 0.051282
vt 0.038462 0.435897
vt 0.038462 0.974359
vt 0.019231 0.948718
vt 0.038462 0.948718
vt 0.038462 0.538462
vt 0.019231 0.512821
vt 0.038462 0.512821
vt 0.038462 0.564103
vt 0.019231 0.538462
vt 0.019231 0.948718
vt 0.000000 0.564103
vt 0.019231 0.564103
vt 0.019231 0.512821
vt 0.000000 0.538462
vt 0.000000 0.512821
vt 0.019231 0.435897
vt 0.019231 0.564103
vt 0.038462 0.564103
vt 0.038462 0.461538
vt 0.019231 0.487179
vt 0.038462 0.487179
vt 0.019231 0.051282
vt 0.307692 0.487179
vt 0.307692 0.974359
vt 0.307692 0.948718
vt 0.038462 0.487179
vt 0.307692 0.512821
vt 0.038462 0.512821
vt 0.307692 0.564103
vt 0.307692 0.948718
vt 0.326923 0.974359
vt 0.326923 0.948718
vt 0.307692 0.512821
vt 0.326923 0.538462
vt 0.326923 0.512821
vt 0.307692 0.538462
vt 0.326923 0.564103
vt 0.326923 0.564103
vt 0.346154 0.948718
vt 0.346154 0.564103
vt 0.326923 0.538462
vt 0.346154 0.512821
vt 0.326923 0.512821
vt 0.307692 0.435897
vt 0.326923 0.461538
vt 0.326923 0.435897
vt 0.307692 0.564103
vt 0.326923 0.564103
vt 0.307692 0.487179
vt 0.326923 0.461538
vt 0.307692 0.051282
vt 0.326923 0.051282
vt 0.038462 0.564103
vt 0.307692 0.538462
vt 0.038462 0.538462
vt 0.307692 0.512821
vt 0.038462 0.512821
vt 0.307692 0.051282
vt 0.019231 0.974359
vt 0.019231 0.538462
vt 0.019231 0.564103
vt 0.000000 0.948718
vt 0.019231 0.538462
vt 0.019231 0.461538
vt 0.019231 0.461538
vt 0.307692 0.974359
vt 0.307692 0.538462
vt 0.307692 0.564103
vt 0.326923 0.948718
vt 0.346154 0.538462
vt 0.307692 0.461538
vt 0.326923 0.487179
vt 0.307692 0.564103
vt 0.307692 0.538462
vn 0.0000 -0.7071 0.7071
vn 0.0000 0.7071 0.7071
vn 0.0000 0.7071 -0.7071
vn 1.0000 0.0000 0.0000
vn 0.0000 -0.7071 -0.7071
vn -1.0000 0.0000 0.0000
s off
f 105/286/9 115/287/9 119/288/9
f 102/289/9 115/287/9 101/290/9
f 102/291/10 109/292/10 103/293/10
f 104/294/11 111/295/11 106/296/11
f 106/297/12 113/298/12 104/294/12
f 108/299/12 109/300/12 107/301/12
f 108/302/12 111/303/12 110/304/12
f 105/286/9 108/305/9 101/290/9
f 103/293/11 110/306/11 104/307/11
f 106/308/13 112/309/13 105/310/13
f 101/290/9 107/311/9 102/289/9
f 120/312/13 105/286/13 119/288/13
f 116/313/10 103/293/10 117/314/10
f 106/315/13 128/316/13 114/317/13
f 118/318/11 103/293/11 104/307/11
f 123/319/10 116/320/10 117/321/10
f 125/322/11 118/323/11 120/324/11
f 127/325/14 120/326/14 118/323/14
f 123/327/14 122/328/14 121/329/14
f 125/330/14 122/331/14 124/332/14
f 122/333/9 119/334/9 115/335/9
f 124/336/11 117/321/11 118/337/11
f 126/338/13 120/339/13 119/288/13
f 121/340/9 115/335/9 116/341/9
f 113/342/10 118/343/10 104/294/10
f 114/344/11 127/345/11 113/346/11
f 105/286/9 101/290/9 115/287/9
f 102/289/9 116/347/9 115/287/9
f 102/291/10 107/348/10 109/292/10
f 104/294/11 110/349/11 111/295/11
f 106/297/12 114/350/12 113/298/12
f 108/299/12 110/351/12 109/300/12
f 108/302/12 112/352/12 111/303/12
f 105/286/9 112/353/9 108/305/9
f 103/293/11 109/292/11 110/306/11
f 106/308/13 111/354/13 112/309/13
f 101/290/9 108/305/9 107/311/9
f 120/312/13 106/315/13 105/286/13
f 116/313/10 102/291/10 103/293/10
f 106/315/13 120/312/13 128/316/13
f 118/318/11 117/314/11 103/293/11
f 123/319/10 121/355/10 116/320/10
f 125/322/11 124/356/11 118/323/11
f 127/325/14 128/357/14 120/326/14
f 123/327/14 124/358/14 122/328/14
f 125/330/14 126/359/14 122/331/14
f 122/333/9 126/360/9 119/334/9
f 124/336/11 123/319/11 117/321/11
f 126/338/13 125/361/13 120/339/13
f 121/340/9 122/333/9 115/335/9
f 113/342/10 127/362/10 118/343/10
f 114/344/11 128/363/11 127/345/11
